# xmcd
#
# Track frame offsets:
#	150
#	16363
#	33066
#	50468
#	65025
#	79436
#	96554
#	110733
#	127903
#	144541
#	158399
#	174039
#	188450
#	204326
#	221379
#	237120
#	253651
#	269090
#	282832
#	296820
#	311304
#
# Disc length: 4254 seconds
#
# Revision: 0
# Processed by: cddbd v1.4PL0 Copyright (c) Steve Scherf et al.
# Submitted via: dBpowerAMP V4.0
#
DISCID=29109c15
DTITLE=Mastruz Com Leite - Do Forró Do Grilo A New York
DYEAR=2003
DGENRE=Forró
TTITLE0=Eu Digo Adeus
TTITLE1=Estamos Dando Um Tempo
TTITLE2=Erro E Perdão
TTITLE3=Menina Bonitinha
TTITLE4=Acredito Em Você
TTITLE5=Sereia Do Mar
TTITLE6=Vou Te Esperar
TTITLE7=Meu Pé-De-Serra, Minha Vida
TTITLE8=Folha Seca
TTITLE9=Não Dá Pra Fingir
TTITLE10=Sempre Vou Lembrar Você
TTITLE11=Perdoa Amor
TTITLE12=Chance Para Recomeçar
TTITLE13=Forró Sem Mulher Não Presta
TTITLE14=Vou Tentar Te Esquecer
TTITLE15=Preciso Ser Amada
TTITLE16=O Viver E A Paixão
TTITLE17=Delícias
TTITLE18=Mulher Companheira
TTITLE19=Aconchego Do Amor
TTITLE20=Do Forró Do Grilo A New York
EXTD=Murillo Gomes
EXTT0=
EXTT1=
EXTT2=
EXTT3=
EXTT4=
EXTT5=
EXTT6=
EXTT7=
EXTT8=
EXTT9=
EXTT10=
EXTT11=
EXTT12=
EXTT13=
EXTT14=
EXTT15=
EXTT16=
EXTT17=
EXTT18=
EXTT19=
EXTT20=
PLAYORDER=
